<svg width="24" height="24" viewBox="0 0 24 24" fill="none" xmlns="http://www.w3.org/2000/svg">
<path fill-rule="evenodd" clip-rule="evenodd" d="M20.999 8.00037V10.9754C21.292 11.0024 21.725 11.1194 21.927 11.6074C21.987 11.7524 22.01 11.9094 21.999 12.0624V14.0004C21.999 14.5534 21.552 15.0004 20.999 15.0004V20.0004C20.999 21.1044 20.103 22.0004 18.999 22.0004H4.99902C3.89502 22.0004 2.99902 21.1044 2.99902 20.0004V15.0004C2.44602 15.0004 1.99902 14.5534 1.99902 14.0004V12.0004C1.99902 11.4764 2.40302 11.0404 2.92702 11.0034C2.92702 11.0034 2.96002 11.0014 2.99902 10.9984V8.00037C2.99902 6.89637 3.89502 6.00037 4.99902 6.00037H10.999V4.68837C10.694 4.41437 10.499 4.02037 10.499 3.57837C10.499 2.75037 11.171 2.07837 11.999 2.07837C12.827 2.07837 13.499 2.75037 13.499 3.57837C13.499 4.02037 13.304 4.41437 12.999 4.68837V6.00037H18.999C20.103 6.00037 20.999 6.89637 20.999 8.00037ZM15.1755 14.1179C16.54 14.1179 17.6461 13.0118 17.6461 11.6473C17.6461 10.2828 16.54 9.17671 15.1755 9.17671C13.811 9.17671 12.7049 10.2828 12.7049 11.6473C12.7049 13.0118 13.811 14.1179 15.1755 14.1179ZM10.5873 11.6473C10.5873 12.6219 9.79717 13.412 8.82255 13.412C7.84793 13.412 7.05785 12.6219 7.05785 11.6473C7.05785 10.6727 7.84793 9.8826 8.82255 9.8826C9.79717 9.8826 10.5873 10.6727 10.5873 11.6473ZM7.05785 17.2944C7.05785 16.7096 7.5319 16.2355 8.11667 16.2355H15.8814C16.4661 16.2355 16.9402 16.7096 16.9402 17.2944C16.9402 17.8791 16.4661 18.3532 15.8814 18.3532H8.11667C7.5319 18.3532 7.05785 17.8791 7.05785 17.2944Z" fill="white"/>
<circle cx="16.9411" cy="2.11758" r="1.41176" fill="white"/>
</svg>
