<svg width="24" height="24" viewBox="0 0 24 24" fill="none" xmlns="http://www.w3.org/2000/svg">
<path d="M5 6.55556C5 6.143 5.16389 5.74733 5.45561 5.45561C5.74733 5.16389 6.143 5 6.55556 5H9.10667C9.26984 5.00012 9.42884 5.05156 9.56117 5.14704C9.69349 5.24251 9.79244 5.37719 9.844 5.532L11.0091 9.02656C11.0681 9.20415 11.0612 9.39708 10.9894 9.56995C10.9177 9.74281 10.7861 9.88402 10.6187 9.96767L8.86322 10.8466C9.72369 12.751 11.249 14.2763 13.1534 15.1368L14.0323 13.3813C14.116 13.2139 14.2572 13.0823 14.4301 13.0106C14.6029 12.9388 14.7958 12.9319 14.9734 12.9909L18.468 14.156C18.6229 14.2076 18.7577 14.3067 18.8532 14.4391C18.9487 14.5716 19 14.7308 19 14.8941V17.4444C19 17.857 18.8361 18.2527 18.5444 18.5444C18.2527 18.8361 17.857 19 17.4444 19H16.6667C10.2236 19 5 13.7764 5 7.33333V6.55556Z" stroke="white" stroke-linecap="round" stroke-linejoin="round"/>
</svg>
