<svg width="50" height="50" viewBox="0 0 50 50" fill="none" xmlns="http://www.w3.org/2000/svg">
<circle r="25" transform="matrix(-1 0 0 1 25 25)" fill="#0E1222"/>
<path d="M25.0013 13C21.7422 13 21.3332 13.0143 20.0532 13.0725C18.7756 13.131 17.9036 13.3333 17.1406 13.63C16.3513 13.9365 15.6818 14.3465 15.0148 15.0138C14.3473 15.6808 13.9373 16.3503 13.6298 17.1393C13.3323 17.9026 13.1298 18.7749 13.0723 20.0519C13.015 21.3319 13 21.7412 13 25.0003C13 28.2593 13.0145 28.6671 13.0725 29.9471C13.1313 31.2246 13.3335 32.0967 13.63 32.8597C13.9368 33.6489 14.3468 34.3185 15.014 34.9855C15.6808 35.653 16.3503 36.064 17.1391 36.3705C17.9026 36.6673 18.7749 36.8695 20.0522 36.928C21.3322 36.9863 21.7409 37.0005 24.9998 37.0005C28.2591 37.0005 28.6668 36.9863 29.9469 36.928C31.2244 36.8695 32.0974 36.6673 32.8609 36.3705C33.65 36.064 34.3185 35.653 34.9852 34.9855C35.6527 34.3185 36.0628 33.649 36.3703 32.8599C36.6653 32.0967 36.8678 31.2244 36.9278 29.9474C36.9853 28.6673 37.0003 28.2593 37.0003 25.0003C37.0003 21.7412 36.9853 21.3322 36.9278 20.0522C36.8678 18.7746 36.6653 17.9026 36.3703 17.1396C36.0628 16.3503 35.6527 15.6808 34.9852 15.0138C34.3177 14.3463 33.6502 13.9363 32.8602 13.63C32.0952 13.3333 31.2226 13.131 29.9451 13.0725C28.6651 13.0143 28.2576 13 24.9975 13H25.0013ZM23.9247 15.1625C24.2442 15.162 24.6008 15.1625 25.0013 15.1625C28.2053 15.1625 28.5851 15.174 29.8504 15.2315C31.0204 15.285 31.6554 15.4806 32.0784 15.6448C32.6384 15.8623 33.0377 16.1223 33.4574 16.5423C33.8775 16.9623 34.1375 17.3623 34.3555 17.9224C34.5197 18.3449 34.7155 18.9799 34.7687 20.1499C34.8262 21.4149 34.8387 21.7949 34.8387 24.9975C34.8387 28.2001 34.8262 28.5801 34.7687 29.8451C34.7152 31.0151 34.5197 31.6502 34.3555 32.0727C34.138 32.6327 33.8775 33.0314 33.4574 33.4512C33.0374 33.8712 32.6387 34.1312 32.0784 34.3487C31.6559 34.5137 31.0204 34.7087 29.8504 34.7622C28.5853 34.8197 28.2053 34.8322 25.0013 34.8322C21.7969 34.8322 21.4172 34.8197 20.1522 34.7622C18.9821 34.7082 18.3471 34.5127 17.9239 34.3485C17.3638 34.131 16.9638 33.871 16.5438 33.4509C16.1238 33.0309 15.8638 32.6319 15.6458 32.0717C15.4816 31.6492 15.2858 31.0141 15.2325 29.8441C15.175 28.5791 15.1635 28.1991 15.1635 24.9945C15.1635 21.7899 15.175 21.4119 15.2325 20.1469C15.286 18.9769 15.4816 18.3419 15.6458 17.9189C15.8633 17.3588 16.1238 16.9588 16.5438 16.5388C16.9638 16.1188 17.3638 15.8588 17.9239 15.6408C18.3469 15.4758 18.9821 15.2808 20.1522 15.227C21.2592 15.177 21.6882 15.162 23.9247 15.1595V15.1625ZM31.4069 17.1551C30.6119 17.1551 29.9669 17.7994 29.9669 18.5946C29.9669 19.3896 30.6119 20.0347 31.4069 20.0347C32.2019 20.0347 32.8469 19.3896 32.8469 18.5946C32.8469 17.7996 32.2019 17.1546 31.4069 17.1546V17.1551ZM25.0013 18.8376C21.5979 18.8376 18.8386 21.5969 18.8386 25.0003C18.8386 28.4036 21.5979 31.1616 25.0013 31.1616C28.4046 31.1616 31.1629 28.4036 31.1629 25.0003C31.1629 21.5969 28.4043 18.8376 25.001 18.8376H25.0013ZM25.0013 21.0002C27.2103 21.0002 29.0013 22.791 29.0013 25.0003C29.0013 27.2093 27.2103 29.0003 25.0013 29.0003C22.792 29.0003 21.0012 27.2093 21.0012 25.0003C21.0012 22.791 22.792 21.0002 25.0013 21.0002Z" fill="white"/>
</svg>
