<svg width="50" height="50" viewBox="0 0 50 50" fill="none" xmlns="http://www.w3.org/2000/svg">
<circle r="25" transform="matrix(-1 0 0 1 25 25)" fill="#0E1222"/>
<path d="M20.2222 17.1163C20.2222 18.2922 19.2786 19.2443 18.1111 19.2443C16.9437 19.2443 16 18.2943 16 17.1163C16 15.9404 16.9437 14.9883 18.1111 14.9883C19.2786 14.9883 20.2222 15.9425 20.2222 17.1163ZM20.2222 21.3385H16V34.0052H20.2222V21.3385ZM26.5556 21.3385H22.3333V34.0052H26.5556V27.9653C26.5556 24.3299 30.782 23.9943 30.782 27.9653V34.0052H35V26.9139C35 19.9811 28.3964 20.2344 26.5556 23.6459V21.3385Z" fill="white"/>
</svg>
