<svg width="24" height="24" viewBox="0 0 24 24" fill="none" xmlns="http://www.w3.org/2000/svg">
<path fill-rule="evenodd" clip-rule="evenodd" d="M3 10.1912C3 8.53431 4.34314 7.19116 6 7.19116H18C19.6569 7.19116 21 8.53431 21 10.1912V16.1912C21 17.8481 19.6569 19.1912 18 19.1912H6C4.34314 19.1912 3 17.8481 3 16.1912V10.1912ZM6.75 20.6912C6.33579 20.6912 6 21.027 6 21.4412C6 21.8553 6.33579 22.1912 6.75 22.1912H17.25C17.6642 22.1912 18 21.8553 18 21.4412C18 21.027 17.6642 20.6912 17.25 20.6912H6.75ZM14.7274 13.3752C14.8685 13.2937 14.8685 13.09 14.7274 13.0085L11.0835 10.9047C10.9423 10.8231 10.7658 10.925 10.7658 11.0881V15.2957C10.7658 15.4587 10.9423 15.5606 11.0835 15.479L14.7274 13.3752Z" fill="white"/>
<rect x="15.6338" y="2.90771" width="1.51266" height="6.90855" rx="0.756331" transform="rotate(45 15.6338 2.90771)" fill="white"/>
<rect x="7.29492" y="1.75635" width="1.51266" height="8.46374" rx="0.756331" transform="rotate(-30 7.29492 1.75635)" fill="white"/>
</svg>
