<svg width="50" height="50" viewBox="0 0 50 50" fill="none" xmlns="http://www.w3.org/2000/svg">
<circle r="25" transform="matrix(-1 0 0 1 25 25)" fill="#0E1222"/>
<path fill-rule="evenodd" clip-rule="evenodd" d="M36.5824 16.8452C36.9862 17.249 37.2771 17.7514 37.4262 18.3026C38.285 21.7592 38.0865 27.2186 37.4429 30.8086C37.2938 31.3598 37.0028 31.8622 36.5991 32.266C36.1954 32.6697 35.6929 32.9606 35.1418 33.1097C33.1241 33.66 25.0035 33.66 25.0035 33.66C25.0035 33.66 16.8829 33.66 14.8653 33.1097C14.3141 32.9606 13.8117 32.6697 13.4079 32.266C13.0042 31.8622 12.7133 31.3598 12.5642 30.8086C11.7004 27.367 11.9372 21.9043 12.5475 18.3192C12.6966 17.7681 12.9875 17.2656 13.3913 16.8619C13.795 16.4582 14.2975 16.1673 14.8486 16.0181C16.8662 15.4678 24.9868 15.4512 24.9868 15.4512C24.9868 15.4512 33.1075 15.4512 35.1251 16.0014C35.6762 16.1506 36.1787 16.4415 36.5824 16.8452ZM29.1392 24.5559L22.4026 28.4578V20.654L29.1392 24.5559Z" fill="white"/>
</svg>
